solid OpenSCAD_Model
  facet normal -1 0 0
    outer loop
      vertex 0 0 0
      vertex 0 29.5 36
      vertex 0 29.5 0
    endloop
  endfacet
  facet normal -1 -0 0
    outer loop
      vertex 0 29.5 36
      vertex 0 0 0
      vertex 0 0 36
    endloop
  endfacet
  facet normal 0 0 1
    outer loop
      vertex 20.5 29.5 36
      vertex 16.5 25.5 36
      vertex 20.5 0 36
    endloop
  endfacet
  facet normal 0 0 1
    outer loop
      vertex 20.5 29.5 36
      vertex 4 25.5 36
      vertex 16.5 25.5 36
    endloop
  endfacet
  facet normal -0 0 1
    outer loop
      vertex 0 29.5 36
      vertex 4 25.5 36
      vertex 20.5 29.5 36
    endloop
  endfacet
  facet normal 0 0 1
    outer loop
      vertex 0 0 36
      vertex 4 25.5 36
      vertex 0 29.5 36
    endloop
  endfacet
  facet normal 0 0 1
    outer loop
      vertex 4 25.5 36
      vertex 0 0 36
      vertex 4 0 36
    endloop
  endfacet
  facet normal 0 0 1
    outer loop
      vertex 20.5 0 36
      vertex 16.5 25.5 36
      vertex 16.5 0 36
    endloop
  endfacet
  facet normal 1 -0 0
    outer loop
      vertex 20.5 0 36
      vertex 20.5 29.5 0
      vertex 20.5 29.5 36
    endloop
  endfacet
  facet normal 1 0 0
    outer loop
      vertex 20.5 29.5 0
      vertex 20.5 0 36
      vertex 20.5 0 0
    endloop
  endfacet
  facet normal 0 0 -1
    outer loop
      vertex 0 0 0
      vertex 20.5 29.5 0
      vertex 20.5 0 0
    endloop
  endfacet
  facet normal -0 0 -1
    outer loop
      vertex 20.5 29.5 0
      vertex 0 0 0
      vertex 0 29.5 0
    endloop
  endfacet
  facet normal 0 -1 0
    outer loop
      vertex 0 0 36
      vertex 4 0 16
      vertex 4 0 36
    endloop
  endfacet
  facet normal 0 -1 -0
    outer loop
      vertex 4 0 16
      vertex 0 0 0
      vertex 16.5 0 16
    endloop
  endfacet
  facet normal 0 -1 0
    outer loop
      vertex 0 0 0
      vertex 4 0 16
      vertex 0 0 36
    endloop
  endfacet
  facet normal 0 -1 0
    outer loop
      vertex 16.5 0 16
      vertex 20.5 0 36
      vertex 16.5 0 36
    endloop
  endfacet
  facet normal 0 -1 0
    outer loop
      vertex 16.5 0 16
      vertex 20.5 0 0
      vertex 20.5 0 36
    endloop
  endfacet
  facet normal 0 -1 0
    outer loop
      vertex 20.5 0 0
      vertex 16.5 0 16
      vertex 0 0 0
    endloop
  endfacet
  facet normal 0 1 -0
    outer loop
      vertex 20.5 29.5 0
      vertex 0 29.5 36
      vertex 20.5 29.5 36
    endloop
  endfacet
  facet normal 0 1 0
    outer loop
      vertex 0 29.5 36
      vertex 20.5 29.5 0
      vertex 0 29.5 0
    endloop
  endfacet
  facet normal 1 0 0
    outer loop
      vertex 4 25.5 36
      vertex 4 4 16
      vertex 4 25.5 4
    endloop
  endfacet
  facet normal 1 -0 0
    outer loop
      vertex 4 0 36
      vertex 4 4 16
      vertex 4 25.5 36
    endloop
  endfacet
  facet normal 1 0 0
    outer loop
      vertex 4 4 16
      vertex 4 0 36
      vertex 4 0 16
    endloop
  endfacet
  facet normal 1 0 0
    outer loop
      vertex 4 25.5 4
      vertex 4 4 16
      vertex 4 4 4
    endloop
  endfacet
  facet normal -1 0 0
    outer loop
      vertex 16.5 4 16
      vertex 16.5 25.5 4
      vertex 16.5 4 4
    endloop
  endfacet
  facet normal -1 0 0
    outer loop
      vertex 16.5 25.5 4
      vertex 16.5 4 16
      vertex 16.5 25.5 36
    endloop
  endfacet
  facet normal -1 0 0
    outer loop
      vertex 16.5 0 36
      vertex 16.5 4 16
      vertex 16.5 0 16
    endloop
  endfacet
  facet normal -1 0 0
    outer loop
      vertex 16.5 4 16
      vertex 16.5 0 36
      vertex 16.5 25.5 36
    endloop
  endfacet
  facet normal 0 -1 0
    outer loop
      vertex 4 25.5 4
      vertex 16.5 25.5 36
      vertex 4 25.5 36
    endloop
  endfacet
  facet normal 0 -1 -0
    outer loop
      vertex 16.5 25.5 36
      vertex 4 25.5 4
      vertex 16.5 25.5 4
    endloop
  endfacet
  facet normal -0 0 1
    outer loop
      vertex 4 25.5 4
      vertex 16.5 4 4
      vertex 16.5 25.5 4
    endloop
  endfacet
  facet normal 0 0 1
    outer loop
      vertex 16.5 4 4
      vertex 4 25.5 4
      vertex 4 4 4
    endloop
  endfacet
  facet normal 0 1 -0
    outer loop
      vertex 16.5 4 4
      vertex 4 4 16
      vertex 16.5 4 16
    endloop
  endfacet
  facet normal 0 1 0
    outer loop
      vertex 4 4 16
      vertex 16.5 4 4
      vertex 4 4 4
    endloop
  endfacet
  facet normal -0 0 1
    outer loop
      vertex 4 4 16
      vertex 16.5 0 16
      vertex 16.5 4 16
    endloop
  endfacet
  facet normal 0 0 1
    outer loop
      vertex 16.5 0 16
      vertex 4 4 16
      vertex 4 0 16
    endloop
  endfacet
endsolid OpenSCAD_Model
