solid scaffold
facet normal 0.0 0.0 -1.0
  outer loop
    vertex 155.0 101.0 0.0
    vertex 1.4201270055996605e-15 64.00000000000001 0.0
    vertex 0.0 101.0 0.0
  endloop
endfacet
facet normal 0.0 0.0 -1.0
  outer loop
    vertex 1.4201270055996605e-15 64.00000000000001 0.0
    vertex 155.0 101.0 0.0
    vertex 55.6 64.00000000000001 1.973976537783528e-14
  endloop
endfacet
facet normal 0.0 0.0 -1.0
  outer loop
    vertex 55.6 64.00000000000001 1.973976537783528e-14
    vertex 155.0 101.0 0.0
    vertex 55.6 -0.19999999999997708 1.973976537783528e-14
  endloop
endfacet
facet normal 0.0 0.0 -1.0
  outer loop
    vertex 1.4201270055996605e-15 -0.19999999999997708 0.0
    vertex 155.0 -23.000000000000014 0.0
    vertex 0.0 -23.000000000000014 0.0
  endloop
endfacet
facet normal 0.0 0.0 -1.0
  outer loop
    vertex 155.0 -23.000000000000014 0.0
    vertex 1.4201270055996605e-15 -0.19999999999997708 0.0
    vertex 55.6 -0.19999999999997708 1.973976537783528e-14
  endloop
endfacet
facet normal 0.0 0.0 -1.0
  outer loop
    vertex 155.0 -23.000000000000014 0.0
    vertex 55.6 -0.19999999999997708 1.973976537783528e-14
    vertex 155.0 101.0 0.0
  endloop
endfacet
facet normal -0.0 -0.0 1.0
  outer loop
    vertex 5.0 96.0 3.9999999999999996
    vertex 0.0 101.0 3.9999999999999996
    vertex 0.0 96.0 3.9999999999999996
  endloop
endfacet
facet normal -0.0 -0.0 1.0
  outer loop
    vertex 0.0 101.0 3.9999999999999996
    vertex 5.0 96.0 3.9999999999999996
    vertex 155.0 101.0 3.9999999999999996
  endloop
endfacet
facet normal -0.0 -0.0 1.0
  outer loop
    vertex 155.0 101.0 3.9999999999999996
    vertex 5.0 96.0 3.9999999999999996
    vertex 150.0 96.0 3.9999999999999996
  endloop
endfacet
facet normal -0.0 -0.0 1.0
  outer loop
    vertex 155.0 101.0 3.9999999999999996
    vertex 150.0 96.0 3.9999999999999996
    vertex 155.0 96.0 3.9999999999999996
  endloop
endfacet
facet normal 0.0 1.0 0.0
  outer loop
    vertex 0.0 101.0 3.9999999999999996
    vertex 155.0 101.0 0.0
    vertex 0.0 101.0 0.0
  endloop
endfacet
facet normal 0.0 1.0 0.0
  outer loop
    vertex 155.0 101.0 0.0
    vertex 0.0 101.0 3.9999999999999996
    vertex 155.0 101.0 3.9999999999999996
  endloop
endfacet
facet normal 1.0 -0.0 -0.0
  outer loop
    vertex 150.0 96.0 3.9999999999999996
    vertex 150.0 90.0 9.0
    vertex 150.0 90.0 3.9999999999999996
  endloop
endfacet
facet normal 1.0 -0.0 -0.0
  outer loop
    vertex 150.0 90.0 9.0
    vertex 150.0 96.0 3.9999999999999996
    vertex 150.0 96.0 9.0
  endloop
endfacet
facet normal -0.0 -0.0 1.0
  outer loop
    vertex 15.0 90.0 103.99999999999999
    vertex 5.0 96.0 103.99999999999999
    vertex 5.0 90.0 103.99999999999999
  endloop
endfacet
facet normal -0.0 -0.0 1.0
  outer loop
    vertex 5.0 96.0 103.99999999999999
    vertex 15.0 90.0 103.99999999999999
    vertex 15.0 96.0 103.99999999999999
  endloop
endfacet
facet normal 3.973823853364928e-17 1.0 -3.139195486898383e-17
  outer loop
    vertex 5.0 96.0 3.9999999999999996
    vertex 15.000000000000004 96.0 19.0
    vertex 150.0 96.0 3.9999999999999996
  endloop
endfacet
facet normal 3.973823853364928e-17 1.0 -3.139195486898383e-17
  outer loop
    vertex 15.000000000000004 96.0 19.0
    vertex 5.0 96.0 3.9999999999999996
    vertex 5.0 96.0 103.99999999999999
  endloop
endfacet
facet normal 3.973823853364928e-17 1.0 -3.139195486898383e-17
  outer loop
    vertex 150.0 96.0 3.9999999999999996
    vertex 15.000000000000004 96.0 19.0
    vertex 130.0 96.0 9.0
  endloop
endfacet
facet normal 3.973823853364928e-17 1.0 -3.139195486898383e-17
  outer loop
    vertex 15.000000000000004 96.0 19.0
    vertex 5.0 96.0 103.99999999999999
    vertex 15.0 96.0 103.99999999999999
  endloop
endfacet
facet normal 3.973823853364928e-17 1.0 -3.139195486898383e-17
  outer loop
    vertex 130.0 96.0 9.0
    vertex 111.0 96.0 19.0
    vertex 130.0 96.0 29.165808335951215
  endloop
endfacet
facet normal 3.973823853364928e-17 1.0 -3.139195486898383e-17
  outer loop
    vertex 111.0 96.0 19.0
    vertex 130.0 96.0 9.0
    vertex 15.000000000000004 96.0 19.0
  endloop
endfacet
facet normal 3.973823853364928e-17 1.0 -3.139195486898383e-17
  outer loop
    vertex 111.0 96.0 19.0
    vertex 15.000000000000004 96.0 19.0
    vertex 102.99999999999999 96.0 19.0
  endloop
endfacet
facet normal 3.973823853364928e-17 1.0 -3.139195486898383e-17
  outer loop
    vertex 130.0 96.0 29.165808335951215
    vertex 111.0 96.0 19.0
    vertex 111.0 96.0 26.999999999999996
  endloop
endfacet
facet normal 3.973823853364928e-17 1.0 -3.139195486898383e-17
  outer loop
    vertex 130.0 96.0 29.165808335951215
    vertex 111.0 96.0 26.999999999999996
    vertex 111.0 96.0 103.99999999999999
  endloop
endfacet
facet normal 3.973823853364928e-17 1.0 -3.139195486898383e-17
  outer loop
    vertex 130.0 96.0 29.165808335951215
    vertex 111.0 96.0 103.99999999999999
    vertex 150.0 96.0 29.165808335951215
  endloop
endfacet
facet normal 3.973823853364928e-17 1.0 -3.139195486898383e-17
  outer loop
    vertex 150.0 96.0 29.165808335951215
    vertex 111.0 96.0 103.99999999999999
    vertex 150.0 96.0 103.99999999999999
  endloop
endfacet
facet normal 3.973823853364928e-17 1.0 -3.139195486898383e-17
  outer loop
    vertex 150.0 96.0 9.0
    vertex 150.0 96.0 3.9999999999999996
    vertex 130.0 96.0 9.0
  endloop
endfacet
facet normal 0.0 -1.0 0.0
  outer loop
    vertex 150.0 47.00000000000001 46.99999999999999
    vertex 146.0 47.000000000000036 75.74999999999999
    vertex 121.0 47.00000000000001 46.99999999999999
  endloop
endfacet
facet normal 0.0 -1.0 0.0
  outer loop
    vertex 146.0 47.000000000000036 75.74999999999999
    vertex 150.0 47.00000000000001 46.99999999999999
    vertex 150.0 47.00000000000001 90.99999999999999
  endloop
endfacet
facet normal 0.0 -1.0 0.0
  outer loop
    vertex 146.0 47.000000000000036 75.74999999999999
    vertex 150.0 47.00000000000001 90.99999999999999
    vertex 146.0 47.00000000000001 90.99999999999999
  endloop
endfacet
facet normal 0.0 -1.0 0.0
  outer loop
    vertex 121.0 47.00000000000001 46.99999999999999
    vertex 125.0 47.000000000000036 75.74999999999999
    vertex 121.0 47.00000000000001 90.99999999999999
  endloop
endfacet
facet normal 0.0 -1.0 0.0
  outer loop
    vertex 125.0 47.000000000000036 75.74999999999999
    vertex 121.0 47.00000000000001 46.99999999999999
    vertex 146.0 47.000000000000036 75.74999999999999
  endloop
endfacet
facet normal 0.0 -1.0 0.0
  outer loop
    vertex 121.0 47.00000000000001 90.99999999999999
    vertex 125.0 47.000000000000036 75.74999999999999
    vertex 125.0 47.00000000000001 90.99999999999999
  endloop
endfacet
facet normal -1.0 -0.0 -0.0
  outer loop
    vertex 121.0 90.0 90.99999999999999
    vertex 121.0 47.00000000000001 46.99999999999999
    vertex 121.0 47.00000000000001 90.99999999999999
  endloop
endfacet
facet normal -1.0 -0.0 -0.0
  outer loop
    vertex 121.0 47.00000000000001 46.99999999999999
    vertex 121.0 90.0 90.99999999999999
    vertex 121.0 90.0 46.99999999999999
  endloop
endfacet
facet normal 0.0 0.0 -1.0
  outer loop
    vertex 146.0 57.99999999999999 47.000000000000014
    vertex 136.5 53.99999999999999 47.000000000000014
    vertex 136.5 57.99999999999999 47.000000000000014
  endloop
endfacet
facet normal 0.0 0.0 -1.0
  outer loop
    vertex 121.0 90.0 46.99999999999999
    vertex 125.0 61.5 47.000000000000014
    vertex 121.0 47.00000000000001 46.99999999999999
  endloop
endfacet
facet normal 0.0 0.0 -1.0
  outer loop
    vertex 125.0 61.5 47.000000000000014
    vertex 121.0 90.0 46.99999999999999
    vertex 150.0 90.0 46.99999999999999
  endloop
endfacet
facet normal 0.0 0.0 -1.0
  outer loop
    vertex 125.0 61.5 47.000000000000014
    vertex 150.0 90.0 46.99999999999999
    vertex 146.0 61.5 47.000000000000014
  endloop
endfacet
facet normal 0.0 0.0 -1.0
  outer loop
    vertex 146.0 61.5 47.000000000000014
    vertex 150.0 90.0 46.99999999999999
    vertex 146.0 57.99999999999999 47.000000000000014
  endloop
endfacet
facet normal 0.0 0.0 -1.0
  outer loop
    vertex 121.0 47.00000000000001 46.99999999999999
    vertex 125.0 57.99999999999999 47.000000000000014
    vertex 150.0 47.00000000000001 46.99999999999999
  endloop
endfacet
facet normal 0.0 0.0 -1.0
  outer loop
    vertex 125.0 57.99999999999999 47.000000000000014
    vertex 121.0 47.00000000000001 46.99999999999999
    vertex 125.0 61.5 47.000000000000014
  endloop
endfacet
facet normal 0.0 0.0 -1.0
  outer loop
    vertex 150.0 47.00000000000001 46.99999999999999
    vertex 125.0 57.99999999999999 47.000000000000014
    vertex 134.5 53.99999999999999 47.000000000000014
  endloop
endfacet
facet normal 0.0 0.0 -1.0
  outer loop
    vertex 134.5 53.99999999999999 47.000000000000014
    vertex 125.0 57.99999999999999 47.000000000000014
    vertex 134.5 57.99999999999999 47.000000000000014
  endloop
endfacet
facet normal 0.0 0.0 -1.0
  outer loop
    vertex 150.0 47.00000000000001 46.99999999999999
    vertex 134.5 53.99999999999999 47.000000000000014
    vertex 136.5 53.99999999999999 47.000000000000014
  endloop
endfacet
facet normal 0.0 0.0 -1.0
  outer loop
    vertex 150.0 47.00000000000001 46.99999999999999
    vertex 136.5 53.99999999999999 47.000000000000014
    vertex 146.0 57.99999999999999 47.000000000000014
  endloop
endfacet
facet normal 0.0 0.0 -1.0
  outer loop
    vertex 150.0 47.00000000000001 46.99999999999999
    vertex 146.0 57.99999999999999 47.000000000000014
    vertex 150.0 90.0 46.99999999999999
  endloop
endfacet
facet normal -0.0 -0.0 1.0
  outer loop
    vertex 125.0 47.00000000000001 90.99999999999999
    vertex 121.0 90.0 90.99999999999999
    vertex 121.0 47.00000000000001 90.99999999999999
  endloop
endfacet
facet normal -0.0 -0.0 1.0
  outer loop
    vertex 121.0 90.0 90.99999999999999
    vertex 125.0 47.00000000000001 90.99999999999999
    vertex 125.0 90.0 90.99999999999999
  endloop
endfacet
facet normal -0.0 -0.0 1.0
  outer loop
    vertex 125.0 90.0 90.99999999999999
    vertex 125.0 47.00000000000001 90.99999999999999
    vertex 125.0 50.00000000000001 90.99999999999999
  endloop
endfacet
facet normal 1.0 -0.0 -2.68568236433133e-16
  outer loop
    vertex 125.0 57.99999999999999 51.49999999999999
    vertex 125.0 50.000000000000036 75.74999999999999
    vertex 125.0 50.0 51.49999999999999
  endloop
endfacet
facet normal 1.0 -0.0 -2.68568236433133e-16
  outer loop
    vertex 125.0 61.5 47.000000000000014
    vertex 125.0 57.99999999999999 51.49999999999999
    vertex 125.0 57.99999999999999 47.000000000000014
  endloop
endfacet
facet normal 1.0 -0.0 -2.68568236433133e-16
  outer loop
    vertex 125.0 50.000000000000036 75.74999999999999
    vertex 125.0 90.0 90.99999999999999
    vertex 125.0 50.00000000000001 90.99999999999999
  endloop
endfacet
facet normal 1.0 -0.0 -2.68568236433133e-16
  outer loop
    vertex 125.0 90.0 90.99999999999999
    vertex 125.0 50.000000000000036 75.74999999999999
    vertex 125.0 57.99999999999999 51.49999999999999
  endloop
endfacet
facet normal 1.0 -0.0 -2.68568236433133e-16
  outer loop
    vertex 125.0 90.0 90.99999999999999
    vertex 125.0 57.99999999999999 51.49999999999999
    vertex 125.0 61.5 51.49999999999999
  endloop
endfacet
facet normal 1.0 -0.0 -2.68568236433133e-16
  outer loop
    vertex 125.0 61.5 51.49999999999999
    vertex 125.0 57.99999999999999 51.49999999999999
    vertex 125.0 61.5 47.000000000000014
  endloop
endfacet
facet normal 1.0 -0.0 -2.68568236433133e-16
  outer loop
    vertex 125.0 90.0 90.99999999999999
    vertex 125.0 61.5 51.49999999999999
    vertex 125.0 90.0 51.49999999999999
  endloop
endfacet
facet normal -0.0 0.9999999999999999 -1.4099832412739483e-16
  outer loop
    vertex 125.0 50.000000000000036 75.74999999999999
    vertex 146.0 50.0 51.49999999999999
    vertex 125.0 50.0 51.49999999999999
  endloop
endfacet
facet normal -0.0 0.9999999999999999 -1.4099832412739483e-16
  outer loop
    vertex 146.0 50.0 51.49999999999999
    vertex 125.0 50.000000000000036 75.74999999999999
    vertex 146.0 50.000000000000036 75.74999999999999
  endloop
endfacet
facet normal -1.0 7.573534250184342e-32 2.68568236433133e-16
  outer loop
    vertex 146.0 57.99999999999999 51.49999999999999
    vertex 146.0 50.0 51.49999999999999
    vertex 146.0 50.000000000000036 75.74999999999999
  endloop
endfacet
facet normal -1.0 7.573534250184342e-32 2.68568236433133e-16
  outer loop
    vertex 146.0 90.0 90.99999999999999
    vertex 146.0 50.000000000000036 75.74999999999999
    vertex 146.0 50.00000000000001 90.99999999999999
  endloop
endfacet
facet normal -1.0 7.573534250184342e-32 2.68568236433133e-16
  outer loop
    vertex 146.0 50.000000000000036 75.74999999999999
    vertex 146.0 90.0 90.99999999999999
    vertex 146.0 57.99999999999999 51.49999999999999
  endloop
endfacet
facet normal -1.0 7.573534250184342e-32 2.68568236433133e-16
  outer loop
    vertex 146.0 57.99999999999999 51.49999999999999
    vertex 146.0 90.0 90.99999999999999
    vertex 146.0 57.99999999999999 47.000000000000014
  endloop
endfacet
facet normal -1.0 7.573534250184342e-32 2.68568236433133e-16
  outer loop
    vertex 146.0 57.99999999999999 47.000000000000014
    vertex 146.0 90.0 90.99999999999999
    vertex 146.0 61.5 51.49999999999999
  endloop
endfacet
facet normal -1.0 7.573534250184342e-32 2.68568236433133e-16
  outer loop
    vertex 146.0 61.5 51.49999999999999
    vertex 146.0 90.0 90.99999999999999
    vertex 146.0 90.0 51.49999999999997
  endloop
endfacet
facet normal -1.0 7.573534250184342e-32 2.68568236433133e-16
  outer loop
    vertex 146.0 61.5 47.000000000000014
    vertex 146.0 57.99999999999999 47.000000000000014
    vertex 146.0 61.5 51.49999999999999
  endloop
endfacet
facet normal 5.371364728662661e-16 3.9578476948040663e-16 1.0
  outer loop
    vertex 146.0 61.5 51.49999999999999
    vertex 125.0 90.0 51.49999999999999
    vertex 125.0 61.5 51.49999999999999
  endloop
endfacet
facet normal 5.371364728662661e-16 3.9578476948040663e-16 1.0
  outer loop
    vertex 125.0 90.0 51.49999999999999
    vertex 146.0 61.5 51.49999999999999
    vertex 146.0 90.0 51.49999999999997
  endloop
endfacet
facet normal -0.0 -0.9999999999999999 -0.0
  outer loop
    vertex 146.0 61.5 51.49999999999999
    vertex 125.0 61.5 47.000000000000014
    vertex 146.0 61.5 47.000000000000014
  endloop
endfacet
facet normal -0.0 -0.9999999999999999 -0.0
  outer loop
    vertex 125.0 61.5 47.000000000000014
    vertex 146.0 61.5 51.49999999999999
    vertex 125.0 61.5 51.49999999999999
  endloop
endfacet
facet normal -0.0 1.0 -0.0
  outer loop
    vertex 136.5 57.99999999999999 51.49999999999999
    vertex 146.0 57.99999999999999 47.000000000000014
    vertex 136.5 57.99999999999999 47.000000000000014
  endloop
endfacet
facet normal -0.0 1.0 -0.0
  outer loop
    vertex 146.0 57.99999999999999 47.000000000000014
    vertex 136.5 57.99999999999999 51.49999999999999
    vertex 146.0 57.99999999999999 51.49999999999999
  endloop
endfacet
facet normal -0.0 -0.0 1.0
  outer loop
    vertex 125.0 50.0 51.49999999999999
    vertex 134.5 53.99999999999999 51.49999999999999
    vertex 125.0 57.99999999999999 51.49999999999999
  endloop
endfacet
facet normal -0.0 -0.0 1.0
  outer loop
    vertex 134.5 53.99999999999999 51.49999999999999
    vertex 125.0 50.0 51.49999999999999
    vertex 146.0 50.0 51.49999999999999
  endloop
endfacet
facet normal -0.0 -0.0 1.0
  outer loop
    vertex 134.5 53.99999999999999 51.49999999999999
    vertex 146.0 50.0 51.49999999999999
    vertex 136.5 53.99999999999999 51.49999999999999
  endloop
endfacet
facet normal -0.0 -0.0 1.0
  outer loop
    vertex 136.5 53.99999999999999 51.49999999999999
    vertex 146.0 50.0 51.49999999999999
    vertex 136.5 57.99999999999999 51.49999999999999
  endloop
endfacet
facet normal -0.0 -0.0 1.0
  outer loop
    vertex 136.5 57.99999999999999 51.49999999999999
    vertex 146.0 50.0 51.49999999999999
    vertex 146.0 57.99999999999999 51.49999999999999
  endloop
endfacet
facet normal -0.0 -0.0 1.0
  outer loop
    vertex 134.5 57.99999999999999 51.49999999999999
    vertex 125.0 57.99999999999999 51.49999999999999
    vertex 134.5 53.99999999999999 51.49999999999999
  endloop
endfacet
facet normal 1.0 -0.0 -0.0
  outer loop
    vertex 134.5 57.99999999999999 47.000000000000014
    vertex 134.5 53.99999999999999 51.49999999999999
    vertex 134.5 53.99999999999999 47.000000000000014
  endloop
endfacet
facet normal 1.0 -0.0 -0.0
  outer loop
    vertex 134.5 53.99999999999999 51.49999999999999
    vertex 134.5 57.99999999999999 47.000000000000014
    vertex 134.5 57.99999999999999 51.49999999999999
  endloop
endfacet
facet normal -0.0 1.0 -0.0
  outer loop
    vertex 134.5 53.99999999999999 51.49999999999999
    vertex 136.5 53.99999999999999 47.000000000000014
    vertex 134.5 53.99999999999999 47.000000000000014
  endloop
endfacet
facet normal -0.0 1.0 -0.0
  outer loop
    vertex 136.5 53.99999999999999 47.000000000000014
    vertex 134.5 53.99999999999999 51.49999999999999
    vertex 136.5 53.99999999999999 51.49999999999999
  endloop
endfacet
facet normal -1.0 0.0 0.0
  outer loop
    vertex 136.5 57.99999999999999 51.49999999999999
    vertex 136.5 53.99999999999999 47.000000000000014
    vertex 136.5 53.99999999999999 51.49999999999999
  endloop
endfacet
facet normal -1.0 0.0 0.0
  outer loop
    vertex 136.5 53.99999999999999 47.000000000000014
    vertex 136.5 57.99999999999999 51.49999999999999
    vertex 136.5 57.99999999999999 47.000000000000014
  endloop
endfacet
facet normal -0.0 1.0 -0.0
  outer loop
    vertex 125.0 57.99999999999999 51.49999999999999
    vertex 134.5 57.99999999999999 47.000000000000014
    vertex 125.0 57.99999999999999 47.000000000000014
  endloop
endfacet
facet normal -0.0 1.0 -0.0
  outer loop
    vertex 134.5 57.99999999999999 47.000000000000014
    vertex 125.0 57.99999999999999 51.49999999999999
    vertex 134.5 57.99999999999999 51.49999999999999
  endloop
endfacet
facet normal 0.0 0.0 -1.0
  outer loop
    vertex 150.0 96.0 29.165808335951215
    vertex 130.0 90.0 29.165808335951215
    vertex 130.0 96.0 29.165808335951215
  endloop
endfacet
facet normal 0.0 0.0 -1.0
  outer loop
    vertex 130.0 90.0 29.165808335951215
    vertex 150.0 96.0 29.165808335951215
    vertex 150.0 90.0 29.165808335951215
  endloop
endfacet
facet normal 1.0 0.0 0.0
  outer loop
    vertex 130.0 96.0 9.0
    vertex 130.0 90.0 29.165808335951215
    vertex 130.0 90.0 9.0
  endloop
endfacet
facet normal 1.0 0.0 0.0
  outer loop
    vertex 130.0 90.0 29.165808335951215
    vertex 130.0 96.0 9.0
    vertex 130.0 96.0 29.165808335951215
  endloop
endfacet
facet normal -0.0 -0.0 1.0
  outer loop
    vertex 150.0 90.0 9.0
    vertex 130.0 96.0 9.0
    vertex 130.0 90.0 9.0
  endloop
endfacet
facet normal -0.0 -0.0 1.0
  outer loop
    vertex 130.0 96.0 9.0
    vertex 150.0 90.0 9.0
    vertex 150.0 96.0 9.0
  endloop
endfacet
facet normal 1.0 -0.0 -0.0
  outer loop
    vertex 150.0 96.0 29.165808335951215
    vertex 150.0 90.0 46.99999999999999
    vertex 150.0 90.0 29.165808335951215
  endloop
endfacet
facet normal 1.0 -0.0 -0.0
  outer loop
    vertex 150.0 90.0 46.99999999999999
    vertex 150.0 96.0 29.165808335951215
    vertex 150.0 90.0 90.99999999999999
  endloop
endfacet
facet normal 1.0 -0.0 -0.0
  outer loop
    vertex 150.0 90.0 90.99999999999999
    vertex 150.0 96.0 29.165808335951215
    vertex 150.0 90.0 103.99999999999999
  endloop
endfacet
facet normal 1.0 -0.0 -0.0
  outer loop
    vertex 150.0 90.0 103.99999999999999
    vertex 150.0 96.0 29.165808335951215
    vertex 150.0 96.0 103.99999999999999
  endloop
endfacet
facet normal 1.0 -0.0 -0.0
  outer loop
    vertex 150.0 90.0 46.99999999999999
    vertex 150.0 47.00000000000001 90.99999999999999
    vertex 150.0 47.00000000000001 46.99999999999999
  endloop
endfacet
facet normal 1.0 -0.0 -0.0
  outer loop
    vertex 150.0 47.00000000000001 90.99999999999999
    vertex 150.0 90.0 46.99999999999999
    vertex 150.0 90.0 90.99999999999999
  endloop
endfacet
facet normal 8.367356216370171e-16 6.697505246202182e-17 1.0
  outer loop
    vertex 150.0 47.00000000000001 90.99999999999999
    vertex 146.0 50.00000000000001 90.99999999999999
    vertex 146.0 47.00000000000001 90.99999999999999
  endloop
endfacet
facet normal 8.367356216370171e-16 6.697505246202182e-17 1.0
  outer loop
    vertex 146.0 50.00000000000001 90.99999999999999
    vertex 150.0 47.00000000000001 90.99999999999999
    vertex 146.0 90.0 90.99999999999999
  endloop
endfacet
facet normal 8.367356216370171e-16 6.697505246202182e-17 1.0
  outer loop
    vertex 146.0 90.0 90.99999999999999
    vertex 150.0 47.00000000000001 90.99999999999999
    vertex 150.0 90.0 90.99999999999999
  endloop
endfacet
facet normal 2.68568236433133e-16 -1.8799776550319314e-15 1.0
  outer loop
    vertex 146.0 47.000000000000036 75.74999999999999
    vertex 125.0 50.000000000000036 75.74999999999999
    vertex 125.0 47.000000000000036 75.74999999999999
  endloop
endfacet
facet normal 2.68568236433133e-16 -1.8799776550319314e-15 1.0
  outer loop
    vertex 125.0 50.000000000000036 75.74999999999999
    vertex 146.0 47.000000000000036 75.74999999999999
    vertex 146.0 50.000000000000036 75.74999999999999
  endloop
endfacet
facet normal -0.9999999999999999 -1.0098045666912453e-30 2.68568236433133e-16
  outer loop
    vertex 146.0 50.00000000000001 90.99999999999999
    vertex 146.0 47.000000000000036 75.74999999999999
    vertex 146.0 47.00000000000001 90.99999999999999
  endloop
endfacet
facet normal -0.9999999999999999 -1.0098045666912453e-30 2.68568236433133e-16
  outer loop
    vertex 146.0 47.000000000000036 75.74999999999999
    vertex 146.0 50.00000000000001 90.99999999999999
    vertex 146.0 50.000000000000036 75.74999999999999
  endloop
endfacet
facet normal 0.9999999999999999 -0.0 -2.68568236433133e-16
  outer loop
    vertex 125.0 47.000000000000036 75.74999999999999
    vertex 125.0 50.00000000000001 90.99999999999999
    vertex 125.0 47.00000000000001 90.99999999999999
  endloop
endfacet
facet normal 0.9999999999999999 -0.0 -2.68568236433133e-16
  outer loop
    vertex 125.0 50.00000000000001 90.99999999999999
    vertex 125.0 47.000000000000036 75.74999999999999
    vertex 125.0 50.000000000000036 75.74999999999999
  endloop
endfacet
facet normal -0.0 -0.0 1.0
  outer loop
    vertex 150.0 90.0 103.99999999999999
    vertex 111.0 96.0 103.99999999999999
    vertex 111.0 90.0 103.99999999999999
  endloop
endfacet
facet normal -0.0 -0.0 1.0
  outer loop
    vertex 111.0 96.0 103.99999999999999
    vertex 150.0 90.0 103.99999999999999
    vertex 150.0 96.0 103.99999999999999
  endloop
endfacet
facet normal 0.0 -1.0 0.0
  outer loop
    vertex 150.0 90.0 46.99999999999999
    vertex 130.0 90.0 29.165808335951215
    vertex 150.0 90.0 29.165808335951215
  endloop
endfacet
facet normal 0.0 -1.0 0.0
  outer loop
    vertex 150.0 90.0 103.99999999999999
    vertex 146.0 90.0 90.99999999999999
    vertex 150.0 90.0 90.99999999999999
  endloop
endfacet
facet normal 0.0 -1.0 0.0
  outer loop
    vertex 146.0 90.0 90.99999999999999
    vertex 150.0 90.0 103.99999999999999
    vertex 125.0 90.0 90.99999999999999
  endloop
endfacet
facet normal 0.0 -1.0 0.0
  outer loop
    vertex 125.0 90.0 90.99999999999999
    vertex 150.0 90.0 103.99999999999999
    vertex 121.0 90.0 90.99999999999999
  endloop
endfacet
facet normal 0.0 -1.0 0.0
  outer loop
    vertex 130.0 90.0 29.165808335951215
    vertex 111.0 90.0 19.0
    vertex 130.0 90.0 9.0
  endloop
endfacet
facet normal 0.0 -1.0 0.0
  outer loop
    vertex 111.0 90.0 19.0
    vertex 130.0 90.0 29.165808335951215
    vertex 111.0 90.0 26.999999999999996
  endloop
endfacet
facet normal 0.0 -1.0 0.0
  outer loop
    vertex 111.0 90.0 26.999999999999996
    vertex 130.0 90.0 29.165808335951215
    vertex 121.0 90.0 46.99999999999999
  endloop
endfacet
facet normal 0.0 -1.0 0.0
  outer loop
    vertex 111.0 90.0 26.999999999999996
    vertex 121.0 90.0 46.99999999999999
    vertex 111.0 90.0 103.99999999999999
  endloop
endfacet
facet normal 0.0 -1.0 0.0
  outer loop
    vertex 121.0 90.0 46.99999999999999
    vertex 130.0 90.0 29.165808335951215
    vertex 150.0 90.0 46.99999999999999
  endloop
endfacet
facet normal 0.0 -1.0 0.0
  outer loop
    vertex 111.0 90.0 103.99999999999999
    vertex 121.0 90.0 46.99999999999999
    vertex 121.0 90.0 90.99999999999999
  endloop
endfacet
facet normal 0.0 -1.0 0.0
  outer loop
    vertex 111.0 90.0 103.99999999999999
    vertex 121.0 90.0 90.99999999999999
    vertex 150.0 90.0 103.99999999999999
  endloop
endfacet
facet normal 0.0 -1.0 0.0
  outer loop
    vertex 146.0 90.0 90.99999999999999
    vertex 125.0 90.0 51.49999999999999
    vertex 146.0 90.0 51.49999999999997
  endloop
endfacet
facet normal 0.0 -1.0 0.0
  outer loop
    vertex 125.0 90.0 51.49999999999999
    vertex 146.0 90.0 90.99999999999999
    vertex 125.0 90.0 90.99999999999999
  endloop
endfacet
facet normal 0.0 -1.0 0.0
  outer loop
    vertex 150.0 90.0 9.0
    vertex 5.0 90.0 3.9999999999999996
    vertex 150.0 90.0 3.9999999999999996
  endloop
endfacet
facet normal 0.0 -1.0 0.0
  outer loop
    vertex 5.0 90.0 3.9999999999999996
    vertex 150.0 90.0 9.0
    vertex 130.0 90.0 9.0
  endloop
endfacet
facet normal 0.0 -1.0 0.0
  outer loop
    vertex 5.0 90.0 3.9999999999999996
    vertex 130.0 90.0 9.0
    vertex 15.000000000000004 90.0 19.0
  endloop
endfacet
facet normal 0.0 -1.0 0.0
  outer loop
    vertex 5.0 90.0 3.9999999999999996
    vertex 15.000000000000004 90.0 19.0
    vertex 5.0 90.0 103.99999999999999
  endloop
endfacet
facet normal 0.0 -1.0 0.0
  outer loop
    vertex 15.000000000000004 90.0 19.0
    vertex 130.0 90.0 9.0
    vertex 111.0 90.0 19.0
  endloop
endfacet
facet normal 0.0 -1.0 0.0
  outer loop
    vertex 15.000000000000004 90.0 19.0
    vertex 111.0 90.0 19.0
    vertex 102.99999999999999 90.0 19.0
  endloop
endfacet
facet normal 0.0 -1.0 0.0
  outer loop
    vertex 5.0 90.0 103.99999999999999
    vertex 15.000000000000004 90.0 19.0
    vertex 15.0 90.0 103.99999999999999
  endloop
endfacet
facet normal 1.0 2.4753205692698267e-32 4.9764114397904076e-17
  outer loop
    vertex 15.000000000000004 96.0 19.0
    vertex 15.0 90.0 103.99999999999999
    vertex 15.000000000000004 90.0 19.0
  endloop
endfacet
facet normal 1.0 2.4753205692698267e-32 4.9764114397904076e-17
  outer loop
    vertex 15.0 90.0 103.99999999999999
    vertex 15.000000000000004 96.0 19.0
    vertex 15.0 96.0 103.99999999999999
  endloop
endfacet
facet normal -0.0 -0.0 1.0
  outer loop
    vertex 102.99999999999999 90.0 19.0
    vertex 15.000000000000004 96.0 19.0
    vertex 15.000000000000004 90.0 19.0
  endloop
endfacet
facet normal -0.0 -0.0 1.0
  outer loop
    vertex 15.000000000000004 96.0 19.0
    vertex 102.99999999999999 90.0 19.0
    vertex 102.99999999999999 96.0 19.0
  endloop
endfacet
facet normal -1.0 0.0 0.0
  outer loop
    vertex 111.0 96.0 103.99999999999999
    vertex 111.0 90.0 26.999999999999996
    vertex 111.0 90.0 103.99999999999999
  endloop
endfacet
facet normal -1.0 0.0 0.0
  outer loop
    vertex 111.0 90.0 26.999999999999996
    vertex 111.0 96.0 103.99999999999999
    vertex 111.0 96.0 26.999999999999996
  endloop
endfacet
facet normal -0.0 -1.0 -0.0
  outer loop
    vertex 155.0 -23.000000000000014 3.9999999999999996
    vertex 0.0 -23.000000000000014 0.0
    vertex 155.0 -23.000000000000014 0.0
  endloop
endfacet
facet normal -0.0 -1.0 -0.0
  outer loop
    vertex 0.0 -23.000000000000014 0.0
    vertex 155.0 -23.000000000000014 3.9999999999999996
    vertex 0.0 -23.000000000000014 3.9999999999999996
  endloop
endfacet
facet normal 0.0 -1.0 0.0
  outer loop
    vertex 55.6 64.00000000000001 1.973976537783528e-14
    vertex 0.0 64.00000000000001 3.9999999999999996
    vertex 1.4201270055996605e-15 64.00000000000001 0.0
  endloop
endfacet
facet normal 0.0 -1.0 0.0
  outer loop
    vertex 0.0 64.00000000000001 3.9999999999999996
    vertex 55.6 64.00000000000001 1.973976537783528e-14
    vertex 55.6 64.00000000000001 4.0000000000000195
  endloop
endfacet
facet normal -1.0 1.919090548107648e-17 -1.775158756999576e-16
  outer loop
    vertex 0.0 -0.19999999999997708 3.9999999999999996
    vertex 0.0 -23.000000000000014 0.0
    vertex 0.0 -23.000000000000014 3.9999999999999996
  endloop
endfacet
facet normal -1.0 1.919090548107648e-17 -1.775158756999576e-16
  outer loop
    vertex 0.0 -23.000000000000014 0.0
    vertex 0.0 -0.19999999999997708 3.9999999999999996
    vertex 1.4201270055996605e-15 -0.19999999999997708 0.0
  endloop
endfacet
facet normal 0.0 1.0 0.0
  outer loop
    vertex 0.0 -0.19999999999997708 3.9999999999999996
    vertex 55.6 -0.19999999999997708 1.973976537783528e-14
    vertex 1.4201270055996605e-15 -0.19999999999997708 0.0
  endloop
endfacet
facet normal 0.0 1.0 0.0
  outer loop
    vertex 55.6 -0.19999999999997708 1.973976537783528e-14
    vertex 0.0 -0.19999999999997708 3.9999999999999996
    vertex 55.6 -0.19999999999997708 4.0000000000000195
  endloop
endfacet
facet normal -1.0 0.0 -3.550317513999152e-16
  outer loop
    vertex 55.6 64.00000000000001 4.0000000000000195
    vertex 55.6 -0.19999999999997708 1.973976537783528e-14
    vertex 55.6 -0.19999999999997708 4.0000000000000195
  endloop
endfacet
facet normal -1.0 0.0 -3.550317513999152e-16
  outer loop
    vertex 55.6 -0.19999999999997708 1.973976537783528e-14
    vertex 55.6 64.00000000000001 4.0000000000000195
    vertex 55.6 64.00000000000001 1.973976537783528e-14
  endloop
endfacet
facet normal -5.644164342905906e-18 -7.27350270425854e-18 1.0
  outer loop
    vertex 155.0 -23.000000000000014 3.9999999999999996
    vertex 0.0 -0.19999999999997708 3.9999999999999996
    vertex 0.0 -23.000000000000014 3.9999999999999996
  endloop
endfacet
facet normal -5.644164342905906e-18 -7.27350270425854e-18 1.0
  outer loop
    vertex 0.0 -0.19999999999997708 3.9999999999999996
    vertex 155.0 -23.000000000000014 3.9999999999999996
    vertex 55.6 -0.19999999999997708 4.0000000000000195
  endloop
endfacet
facet normal -5.644164342905906e-18 -7.27350270425854e-18 1.0
  outer loop
    vertex 55.6 -0.19999999999997708 4.0000000000000195
    vertex 155.0 -23.000000000000014 3.9999999999999996
    vertex 55.6 64.00000000000001 4.0000000000000195
  endloop
endfacet
facet normal -5.644164342905906e-18 -7.27350270425854e-18 1.0
  outer loop
    vertex 55.6 64.00000000000001 4.0000000000000195
    vertex 155.0 -23.000000000000014 3.9999999999999996
    vertex 150.0 90.0 3.9999999999999996
  endloop
endfacet
facet normal -5.644164342905906e-18 -7.27350270425854e-18 1.0
  outer loop
    vertex 150.0 90.0 3.9999999999999996
    vertex 155.0 -23.000000000000014 3.9999999999999996
    vertex 155.0 90.0 3.9999999999999996
  endloop
endfacet
facet normal -5.644164342905906e-18 -7.27350270425854e-18 1.0
  outer loop
    vertex 55.6 64.00000000000001 4.0000000000000195
    vertex 0.0 90.0 3.9999999999999996
    vertex 0.0 64.00000000000001 3.9999999999999996
  endloop
endfacet
facet normal -5.644164342905906e-18 -7.27350270425854e-18 1.0
  outer loop
    vertex 0.0 90.0 3.9999999999999996
    vertex 55.6 64.00000000000001 4.0000000000000195
    vertex 5.0 90.0 3.9999999999999996
  endloop
endfacet
facet normal -5.644164342905906e-18 -7.27350270425854e-18 1.0
  outer loop
    vertex 5.0 90.0 3.9999999999999996
    vertex 55.6 64.00000000000001 4.0000000000000195
    vertex 150.0 90.0 3.9999999999999996
  endloop
endfacet
facet normal 1.0 0.0 0.0
  outer loop
    vertex 155.0 101.0 0.0
    vertex 155.0 -23.000000000000014 3.9999999999999996
    vertex 155.0 -23.000000000000014 0.0
  endloop
endfacet
facet normal 1.0 0.0 0.0
  outer loop
    vertex 155.0 -23.000000000000014 3.9999999999999996
    vertex 155.0 101.0 0.0
    vertex 155.0 90.0 3.9999999999999996
  endloop
endfacet
facet normal 1.0 0.0 0.0
  outer loop
    vertex 155.0 90.0 3.9999999999999996
    vertex 155.0 101.0 0.0
    vertex 155.0 96.0 3.9999999999999996
  endloop
endfacet
facet normal 1.0 0.0 0.0
  outer loop
    vertex 155.0 96.0 3.9999999999999996
    vertex 155.0 101.0 0.0
    vertex 155.0 101.0 3.9999999999999996
  endloop
endfacet
facet normal 0.0 0.0 0.9999999999999999
  outer loop
    vertex 155.0 90.0 3.9999999999999996
    vertex 150.0 96.0 3.9999999999999996
    vertex 150.0 90.0 3.9999999999999996
  endloop
endfacet
facet normal 0.0 0.0 0.9999999999999999
  outer loop
    vertex 150.0 96.0 3.9999999999999996
    vertex 155.0 90.0 3.9999999999999996
    vertex 155.0 96.0 3.9999999999999996
  endloop
endfacet
facet normal -1.0 -1.7547069362894462e-17 -1.5448534716115865e-16
  outer loop
    vertex 0.0 90.0 3.9999999999999996
    vertex 1.4201270055996605e-15 64.00000000000001 0.0
    vertex 0.0 64.00000000000001 3.9999999999999996
  endloop
endfacet
facet normal -1.0 -1.7547069362894462e-17 -1.5448534716115865e-16
  outer loop
    vertex 1.4201270055996605e-15 64.00000000000001 0.0
    vertex 0.0 90.0 3.9999999999999996
    vertex 0.0 101.0 0.0
  endloop
endfacet
facet normal -1.0 -1.7547069362894462e-17 -1.5448534716115865e-16
  outer loop
    vertex 0.0 101.0 0.0
    vertex 0.0 90.0 3.9999999999999996
    vertex 0.0 96.0 3.9999999999999996
  endloop
endfacet
facet normal -1.0 -1.7547069362894462e-17 -1.5448534716115865e-16
  outer loop
    vertex 0.0 101.0 0.0
    vertex 0.0 96.0 3.9999999999999996
    vertex 0.0 101.0 3.9999999999999996
  endloop
endfacet
facet normal -0.0 -0.0 1.0
  outer loop
    vertex 150.0 90.0 3.9999999999999996
    vertex 5.0 96.0 3.9999999999999996
    vertex 5.0 90.0 3.9999999999999996
  endloop
endfacet
facet normal -0.0 -0.0 1.0
  outer loop
    vertex 5.0 96.0 3.9999999999999996
    vertex 150.0 90.0 3.9999999999999996
    vertex 150.0 96.0 3.9999999999999996
  endloop
endfacet
facet normal -1.0 0.0 0.0
  outer loop
    vertex 5.0 96.0 103.99999999999999
    vertex 5.0 90.0 3.9999999999999996
    vertex 5.0 90.0 103.99999999999999
  endloop
endfacet
facet normal -1.0 0.0 0.0
  outer loop
    vertex 5.0 90.0 3.9999999999999996
    vertex 5.0 96.0 103.99999999999999
    vertex 5.0 96.0 3.9999999999999996
  endloop
endfacet
facet normal 0.0 0.0 0.9999999999999999
  outer loop
    vertex 5.0 90.0 3.9999999999999996
    vertex 0.0 96.0 3.9999999999999996
    vertex 0.0 90.0 3.9999999999999996
  endloop
endfacet
facet normal 0.0 0.0 0.9999999999999999
  outer loop
    vertex 0.0 96.0 3.9999999999999996
    vertex 5.0 90.0 3.9999999999999996
    vertex 5.0 96.0 3.9999999999999996
  endloop
endfacet
facet normal 0.0 -1.0 0.0
  outer loop
    vertex 111.0 90.0 26.999999999999996
    vertex 102.99999999999999 90.0 19.0
    vertex 111.0 90.0 19.0
  endloop
endfacet
facet normal -0.0 1.0 -0.0
  outer loop
    vertex 111.0 96.0 26.999999999999996
    vertex 111.0 96.0 19.0
    vertex 102.99999999999999 96.0 19.0
  endloop
endfacet
facet normal -0.707106781186547 4.998277597463659e-30 0.707106781186548
  outer loop
    vertex 111.0 90.0 26.999999999999996
    vertex 102.99999999999999 96.0 19.0
    vertex 102.99999999999999 90.0 19.0
  endloop
endfacet
facet normal -0.707106781186547 4.998277597463659e-30 0.707106781186548
  outer loop
    vertex 102.99999999999999 96.0 19.0
    vertex 111.0 90.0 26.999999999999996
    vertex 111.0 96.0 26.999999999999996
  endloop
endfacet
facet normal -0.0 -0.0 1.0
  outer loop
    vertex 111.0 90.0 19.0
    vertex 102.99999999999999 96.0 19.0
    vertex 102.99999999999999 90.0 19.0
  endloop
endfacet
facet normal -0.0 -0.0 1.0
  outer loop
    vertex 102.99999999999999 96.0 19.0
    vertex 111.0 90.0 19.0
    vertex 111.0 96.0 19.0
  endloop
endfacet
facet normal -1.0 0.0 0.0
  outer loop
    vertex 111.0 96.0 26.999999999999996
    vertex 111.0 90.0 19.0
    vertex 111.0 90.0 26.999999999999996
  endloop
endfacet
facet normal -1.0 0.0 0.0
  outer loop
    vertex 111.0 90.0 19.0
    vertex 111.0 96.0 26.999999999999996
    vertex 111.0 96.0 19.0
  endloop
endfacet
endsolid scaffold
