solid OpenSCAD_Model
  facet normal -1 0 0
    outer loop
      vertex 0 0 0
      vertex 0 44.5 43
      vertex 0 44.5 0
    endloop
  endfacet
  facet normal -1 -0 0
    outer loop
      vertex 0 44.5 43
      vertex 0 0 0
      vertex 0 0 43
    endloop
  endfacet
  facet normal 0 0 1
    outer loop
      vertex 13.5 11.5 4
      vertex 4 11.5 4
      vertex 13.5 10 4
    endloop
  endfacet
  facet normal 0 0 1
    outer loop
      vertex 15.5 10 4
      vertex 25 11.5 4
      vertex 15.5 11.5 4
    endloop
  endfacet
  facet normal 0 0 1
    outer loop
      vertex 25 11.5 4
      vertex 15.5 10 4
      vertex 25 3 4
    endloop
  endfacet
  facet normal -0 0 1
    outer loop
      vertex 13.5 10 4
      vertex 25 3 4
      vertex 15.5 10 4
    endloop
  endfacet
  facet normal 0 0 1
    outer loop
      vertex 4 3 4
      vertex 13.5 10 4
      vertex 4 11.5 4
    endloop
  endfacet
  facet normal 0 0 1
    outer loop
      vertex 13.5 10 4
      vertex 4 3 4
      vertex 25 3 4
    endloop
  endfacet
  facet normal -0 0 1
    outer loop
      vertex 4 40.5 4
      vertex 25 15 4
      vertex 25 40.5 4
    endloop
  endfacet
  facet normal 0 0 1
    outer loop
      vertex 25 15 4
      vertex 4 40.5 4
      vertex 4 15 4
    endloop
  endfacet
  facet normal 1 -0 0
    outer loop
      vertex 29 0 43
      vertex 29 44.5 0
      vertex 29 44.5 43
    endloop
  endfacet
  facet normal 1 0 0
    outer loop
      vertex 29 44.5 0
      vertex 29 0 43
      vertex 29 0 0
    endloop
  endfacet
  facet normal 0 1 -0
    outer loop
      vertex 29 44.5 0
      vertex 0 44.5 43
      vertex 29 44.5 43
    endloop
  endfacet
  facet normal 0 1 0
    outer loop
      vertex 0 44.5 43
      vertex 29 44.5 0
      vertex 0 44.5 0
    endloop
  endfacet
  facet normal 0 0 -1
    outer loop
      vertex 25 15 0
      vertex 29 0 0
      vertex 25 11.5 0
    endloop
  endfacet
  facet normal 0 0 -1
    outer loop
      vertex 29 0 0
      vertex 15.5 10 0
      vertex 25 11.5 0
    endloop
  endfacet
  facet normal 0 0 -1
    outer loop
      vertex 29 0 0
      vertex 13.5 10 0
      vertex 15.5 10 0
    endloop
  endfacet
  facet normal 0 0 -1
    outer loop
      vertex 13.5 10 0
      vertex 4 11.5 0
      vertex 13.5 11.5 0
    endloop
  endfacet
  facet normal 0 0 -1
    outer loop
      vertex 0 0 0
      vertex 13.5 10 0
      vertex 29 0 0
    endloop
  endfacet
  facet normal -0 0 -1
    outer loop
      vertex 4 11.5 0
      vertex 0 0 0
      vertex 4 15 0
    endloop
  endfacet
  facet normal -0 0 -1
    outer loop
      vertex 13.5 10 0
      vertex 0 0 0
      vertex 4 11.5 0
    endloop
  endfacet
  facet normal 0 0 -1
    outer loop
      vertex 29 0 0
      vertex 25 15 0
      vertex 29 44.5 0
    endloop
  endfacet
  facet normal 0 0 -1
    outer loop
      vertex 4 15 0
      vertex 29 44.5 0
      vertex 25 15 0
    endloop
  endfacet
  facet normal 0 0 -1
    outer loop
      vertex 4 15 0
      vertex 0 44.5 0
      vertex 29 44.5 0
    endloop
  endfacet
  facet normal 0 0 -1
    outer loop
      vertex 0 44.5 0
      vertex 4 15 0
      vertex 0 0 0
    endloop
  endfacet
  facet normal -0 0 -1
    outer loop
      vertex 25 11.5 0
      vertex 15.5 10 0
      vertex 15.5 11.5 0
    endloop
  endfacet
  facet normal 0 -1 0
    outer loop
      vertex 0 0 43
      vertex 4 0 28
      vertex 4 0 43
    endloop
  endfacet
  facet normal 0 -1 -0
    outer loop
      vertex 4 0 28
      vertex 0 0 0
      vertex 25 0 28
    endloop
  endfacet
  facet normal 0 -1 0
    outer loop
      vertex 0 0 0
      vertex 4 0 28
      vertex 0 0 43
    endloop
  endfacet
  facet normal 0 -1 0
    outer loop
      vertex 25 0 28
      vertex 29 0 43
      vertex 25 0 43
    endloop
  endfacet
  facet normal 0 -1 0
    outer loop
      vertex 25 0 28
      vertex 29 0 0
      vertex 29 0 43
    endloop
  endfacet
  facet normal 0 -1 0
    outer loop
      vertex 29 0 0
      vertex 25 0 28
      vertex 0 0 0
    endloop
  endfacet
  facet normal 0 0 1
    outer loop
      vertex 29 44.5 43
      vertex 25 40.5 43
      vertex 29 0 43
    endloop
  endfacet
  facet normal 0 0 1
    outer loop
      vertex 29 44.5 43
      vertex 4 40.5 43
      vertex 25 40.5 43
    endloop
  endfacet
  facet normal -0 0 1
    outer loop
      vertex 0 44.5 43
      vertex 4 40.5 43
      vertex 29 44.5 43
    endloop
  endfacet
  facet normal 0 0 1
    outer loop
      vertex 0 0 43
      vertex 4 40.5 43
      vertex 0 44.5 43
    endloop
  endfacet
  facet normal 0 0 1
    outer loop
      vertex 4 40.5 43
      vertex 0 0 43
      vertex 4 0 43
    endloop
  endfacet
  facet normal 0 0 1
    outer loop
      vertex 29 0 43
      vertex 25 40.5 43
      vertex 25 0 43
    endloop
  endfacet
  facet normal 1 0 0
    outer loop
      vertex 4 40.5 43
      vertex 4 15 7.5
      vertex 4 40.5 4
    endloop
  endfacet
  facet normal 1 -0 0
    outer loop
      vertex 4 3 28
      vertex 4 15 7.5
      vertex 4 40.5 43
    endloop
  endfacet
  facet normal 1 0 0
    outer loop
      vertex 4 3 4
      vertex 4 11.5 7.5
      vertex 4 3 28
    endloop
  endfacet
  facet normal 1 0 0
    outer loop
      vertex 4 15 7.5
      vertex 4 3 28
      vertex 4 11.5 7.5
    endloop
  endfacet
  facet normal 1 -0 0
    outer loop
      vertex 4 0 43
      vertex 4 3 28
      vertex 4 40.5 43
    endloop
  endfacet
  facet normal 1 0 0
    outer loop
      vertex 4 3 28
      vertex 4 0 43
      vertex 4 0 28
    endloop
  endfacet
  facet normal 1 0 0
    outer loop
      vertex 4 40.5 4
      vertex 4 15 7.5
      vertex 4 15 4
    endloop
  endfacet
  facet normal 1 0 0
    outer loop
      vertex 4 11.5 7.5
      vertex 4 3 4
      vertex 4 11.5 4
    endloop
  endfacet
  facet normal 1 0 0
    outer loop
      vertex 4 11.5 4
      vertex 4 15 4
      vertex 4 15 7.5
    endloop
  endfacet
  facet normal 1 0 0
    outer loop
      vertex 4 11.5 4
      vertex 4 15 7.5
      vertex 4 11.5 7.5
    endloop
  endfacet
  facet normal 1 0 0
    outer loop
      vertex 4 15 4
      vertex 4 11.5 4
      vertex 4 15 0
    endloop
  endfacet
  facet normal 1 0 0
    outer loop
      vertex 4 15 0
      vertex 4 11.5 4
      vertex 4 11.5 0
    endloop
  endfacet
  facet normal -0 0 1
    outer loop
      vertex 4 3 28
      vertex 25 0 28
      vertex 25 3 28
    endloop
  endfacet
  facet normal 0 0 1
    outer loop
      vertex 25 0 28
      vertex 4 3 28
      vertex 4 0 28
    endloop
  endfacet
  facet normal 0 1 -0
    outer loop
      vertex 25 3 4
      vertex 4 3 28
      vertex 25 3 28
    endloop
  endfacet
  facet normal 0 1 0
    outer loop
      vertex 4 3 28
      vertex 25 3 4
      vertex 4 3 4
    endloop
  endfacet
  facet normal -1 0 0
    outer loop
      vertex 25 11.5 4
      vertex 25 3 4
      vertex 25 11.5 7.5
    endloop
  endfacet
  facet normal -1 0 0
    outer loop
      vertex 25 15 7.5
      vertex 25 40.5 4
      vertex 25 15 4
    endloop
  endfacet
  facet normal -1 0 0
    outer loop
      vertex 25 40.5 4
      vertex 25 15 7.5
      vertex 25 40.5 43
    endloop
  endfacet
  facet normal -1 0 0
    outer loop
      vertex 25 3 28
      vertex 25 15 7.5
      vertex 25 11.5 7.5
    endloop
  endfacet
  facet normal -1 0 0
    outer loop
      vertex 25 3 28
      vertex 25 11.5 7.5
      vertex 25 3 4
    endloop
  endfacet
  facet normal -1 0 0
    outer loop
      vertex 25 15 7.5
      vertex 25 3 28
      vertex 25 40.5 43
    endloop
  endfacet
  facet normal -1 0 0
    outer loop
      vertex 25 0 43
      vertex 25 3 28
      vertex 25 0 28
    endloop
  endfacet
  facet normal -1 0 0
    outer loop
      vertex 25 3 28
      vertex 25 0 43
      vertex 25 40.5 43
    endloop
  endfacet
  facet normal -1 0 0
    outer loop
      vertex 25 11.5 4
      vertex 25 15 4
      vertex 25 15 0
    endloop
  endfacet
  facet normal -1 0 0
    outer loop
      vertex 25 11.5 4
      vertex 25 15 0
      vertex 25 11.5 0
    endloop
  endfacet
  facet normal -1 0 0
    outer loop
      vertex 25 15 4
      vertex 25 11.5 4
      vertex 25 15 7.5
    endloop
  endfacet
  facet normal -1 -0 0
    outer loop
      vertex 25 15 7.5
      vertex 25 11.5 4
      vertex 25 11.5 7.5
    endloop
  endfacet
  facet normal 0 -1 0
    outer loop
      vertex 4 40.5 4
      vertex 25 40.5 43
      vertex 4 40.5 43
    endloop
  endfacet
  facet normal 0 -1 -0
    outer loop
      vertex 25 40.5 43
      vertex 4 40.5 4
      vertex 25 40.5 4
    endloop
  endfacet
  facet normal 0 -1 0
    outer loop
      vertex 4 15 0
      vertex 25 15 4
      vertex 4 15 4
    endloop
  endfacet
  facet normal 0 -1 -0
    outer loop
      vertex 25 15 4
      vertex 4 15 0
      vertex 25 15 0
    endloop
  endfacet
  facet normal 0 1 -0
    outer loop
      vertex 13.5 11.5 0
      vertex 4 11.5 4
      vertex 13.5 11.5 4
    endloop
  endfacet
  facet normal 0 1 0
    outer loop
      vertex 4 11.5 4
      vertex 13.5 11.5 0
      vertex 4 11.5 0
    endloop
  endfacet
  facet normal 0 1 -0
    outer loop
      vertex 25 11.5 0
      vertex 15.5 11.5 4
      vertex 25 11.5 4
    endloop
  endfacet
  facet normal 0 1 0
    outer loop
      vertex 15.5 11.5 4
      vertex 25 11.5 0
      vertex 15.5 11.5 0
    endloop
  endfacet
  facet normal 1 -0 0
    outer loop
      vertex 13.5 10 4
      vertex 13.5 11.5 0
      vertex 13.5 11.5 4
    endloop
  endfacet
  facet normal 1 0 0
    outer loop
      vertex 13.5 11.5 0
      vertex 13.5 10 4
      vertex 13.5 10 0
    endloop
  endfacet
  facet normal -1 0 0
    outer loop
      vertex 15.5 10 0
      vertex 15.5 11.5 4
      vertex 15.5 11.5 0
    endloop
  endfacet
  facet normal -1 -0 0
    outer loop
      vertex 15.5 11.5 4
      vertex 15.5 10 0
      vertex 15.5 10 4
    endloop
  endfacet
  facet normal 0 1 -0
    outer loop
      vertex 15.5 10 0
      vertex 13.5 10 4
      vertex 15.5 10 4
    endloop
  endfacet
  facet normal 0 1 0
    outer loop
      vertex 13.5 10 4
      vertex 15.5 10 0
      vertex 13.5 10 0
    endloop
  endfacet
endsolid OpenSCAD_Model
